<svg role="img" viewBox="0 0 24 24" xmlns="http://www.w3.org/2000/svg">
  <title>LinkedIn</title>
  <path d="M22.23 0H1.77C.79 0 0 .77 0 1.75v20.5C0 23.23.79 24 1.77 24h20.46c.98 0 1.77-.77 1.77-1.75V1.75C24 .77 23.21 0 22.23 0zM7.12 20.45H3.56V9h3.56v11.45zM5.34 7.58c-1.14 0-2.06-.93-2.06-2.07 0-1.14.92-2.07 2.06-2.07 1.14 0 2.06.93 2.06 2.07 0 1.14-.92 2.07-2.06 2.07zM20.45 20.45h-3.56v-5.6c0-1.34-.03-3.07-1.87-3.07-1.87 0-2.16 1.46-2.16 2.97v5.7H9.3V9h3.42v1.56h.05c.48-.9 1.65-1.85 3.4-1.85 3.63 0 4.3 2.39 4.3 5.5v6.24z" fill="#ffffff"/>
</svg>
